<svg xmlns="http://www.w3.org/2000/svg" viewBox="0 0 100 100" width="100" height="100">
  <defs>
    <linearGradient id="bg" x1="0%" y1="0%" x2="100%" y2="100%">
      <stop offset="0%" style="stop-color:#1a1a2e;stop-opacity:1" />
      <stop offset="100%" style="stop-color:#16213e;stop-opacity:1" />
    </linearGradient>
  </defs>
  <rect width="100" height="100" rx="20" fill="url(#bg)"/>
  <!-- Barcode lines -->
  <rect x="20" y="25" width="3" height="40" fill="white"/>
  <rect x="25" y="25" width="2" height="40" fill="white"/>
  <rect x="29" y="25" width="5" height="40" fill="white"/>
  <rect x="36" y="25" width="2" height="40" fill="white"/>
  <rect x="40" y="25" width="3" height="40" fill="white"/>
  <rect x="45" y="25" width="1" height="40" fill="white"/>
  <rect x="48" y="25" width="4" height="40" fill="white"/>
  <rect x="54" y="25" width="2" height="40" fill="white"/>
  <rect x="58" y="25" width="3" height="40" fill="white"/>
  <rect x="63" y="25" width="1" height="40" fill="white"/>
  <rect x="66" y="25" width="4" height="40" fill="white"/>
  <rect x="72" y="25" width="2" height="40" fill="white"/>
  <rect x="76" y="25" width="3" height="40" fill="white"/>
  <!-- QR corner boxes -->
  <rect x="18" y="68" width="10" height="10" rx="1" fill="white" opacity="0.6"/>
  <rect x="72" y="68" width="10" height="10" rx="1" fill="white" opacity="0.6"/>
  <rect x="18" y="80" width="10" height="10" rx="1" fill="white" opacity="0.6"/>
</svg>
